<mxfile host="65bd71144e">
    <diagram name="Page-1" id="c4acf3e9-155e-7222-9cf6-157b1a14988f">
        <mxGraphModel dx="3353" dy="1836" grid="0" gridSize="5" guides="1" tooltips="1" connect="1" arrows="1" fold="1" page="0" pageScale="1" pageWidth="3300" pageHeight="2339" background="#ffffff" math="0" shadow="0">
            <root>
                <mxCell id="0"/>
                <mxCell id="1" parent="0"/>
                <mxCell id="HgwSdka9-RbxPRJBKt4S-45" value="User" style="swimlane;fontStyle=1;align=center;verticalAlign=top;childLayout=stackLayout;horizontal=1;startSize=26;horizontalStack=0;resizeParent=1;resizeParentMax=0;resizeLast=0;collapsible=1;marginBottom=0;" parent="1" vertex="1">
                    <mxGeometry x="179" y="400" width="160" height="111" as="geometry"/>
                </mxCell>
                <mxCell id="HgwSdka9-RbxPRJBKt4S-46" value="+ id: int" style="text;strokeColor=none;fillColor=none;align=left;verticalAlign=top;spacingLeft=4;spacingRight=4;overflow=hidden;rotatable=0;points=[[0,0.5],[1,0.5]];portConstraint=eastwest;" parent="HgwSdka9-RbxPRJBKt4S-45" vertex="1">
                    <mxGeometry y="26" width="160" height="25" as="geometry"/>
                </mxCell>
                <mxCell id="HgwSdka9-RbxPRJBKt4S-53" value="+ chats: vector&lt;Chat&gt;" style="text;strokeColor=none;fillColor=none;align=left;verticalAlign=top;spacingLeft=4;spacingRight=4;overflow=hidden;rotatable=0;points=[[0,0.5],[1,0.5]];portConstraint=eastwest;" parent="HgwSdka9-RbxPRJBKt4S-45" vertex="1">
                    <mxGeometry y="51" width="160" height="25" as="geometry"/>
                </mxCell>
                <mxCell id="HgwSdka9-RbxPRJBKt4S-47" value="" style="line;strokeWidth=1;fillColor=none;align=left;verticalAlign=middle;spacingTop=-1;spacingLeft=3;spacingRight=3;rotatable=0;labelPosition=right;points=[];portConstraint=eastwest;" parent="HgwSdka9-RbxPRJBKt4S-45" vertex="1">
                    <mxGeometry y="76" width="160" height="10" as="geometry"/>
                </mxCell>
                <mxCell id="qE9S9bq8S4wY-z4ullLe-9" value="+ User()" style="text;strokeColor=none;fillColor=none;align=left;verticalAlign=top;spacingLeft=4;spacingRight=4;overflow=hidden;rotatable=0;points=[[0,0.5],[1,0.5]];portConstraint=eastwest;" parent="HgwSdka9-RbxPRJBKt4S-45" vertex="1">
                    <mxGeometry y="86" width="160" height="25" as="geometry"/>
                </mxCell>
                <mxCell id="Bm1LBRGZsNO9c_nWnn3g-1" value="Chat" style="swimlane;fontStyle=1;align=center;verticalAlign=top;childLayout=stackLayout;horizontal=1;startSize=26;horizontalStack=0;resizeParent=1;resizeParentMax=0;resizeLast=0;collapsible=1;marginBottom=0;" parent="1" vertex="1">
                    <mxGeometry x="169" y="580" width="180" height="111" as="geometry"/>
                </mxCell>
                <mxCell id="Bm1LBRGZsNO9c_nWnn3g-2" value="+ id: int " style="text;strokeColor=none;fillColor=none;align=left;verticalAlign=top;spacingLeft=4;spacingRight=4;overflow=hidden;rotatable=0;points=[[0,0.5],[1,0.5]];portConstraint=eastwest;" parent="Bm1LBRGZsNO9c_nWnn3g-1" vertex="1">
                    <mxGeometry y="26" width="180" height="25" as="geometry"/>
                </mxCell>
                <mxCell id="Bm1LBRGZsNO9c_nWnn3g-5" value="+ msgs: vector&lt;Message&gt; " style="text;strokeColor=none;fillColor=none;align=left;verticalAlign=top;spacingLeft=4;spacingRight=4;overflow=hidden;rotatable=0;points=[[0,0.5],[1,0.5]];portConstraint=eastwest;" parent="Bm1LBRGZsNO9c_nWnn3g-1" vertex="1">
                    <mxGeometry y="51" width="180" height="25" as="geometry"/>
                </mxCell>
                <mxCell id="Bm1LBRGZsNO9c_nWnn3g-3" value="" style="line;strokeWidth=1;fillColor=none;align=left;verticalAlign=middle;spacingTop=-1;spacingLeft=3;spacingRight=3;rotatable=0;labelPosition=right;points=[];portConstraint=eastwest;" parent="Bm1LBRGZsNO9c_nWnn3g-1" vertex="1">
                    <mxGeometry y="76" width="180" height="10" as="geometry"/>
                </mxCell>
                <mxCell id="qE9S9bq8S4wY-z4ullLe-6" value="+ Chat()" style="text;strokeColor=none;fillColor=none;align=left;verticalAlign=top;spacingLeft=4;spacingRight=4;overflow=hidden;rotatable=0;points=[[0,0.5],[1,0.5]];portConstraint=eastwest;" parent="Bm1LBRGZsNO9c_nWnn3g-1" vertex="1">
                    <mxGeometry y="86" width="180" height="25" as="geometry"/>
                </mxCell>
                <mxCell id="Bm1LBRGZsNO9c_nWnn3g-6" value="Message" style="swimlane;fontStyle=1;align=center;verticalAlign=top;childLayout=stackLayout;horizontal=1;startSize=26;horizontalStack=0;resizeParent=1;resizeParentMax=0;resizeLast=0;collapsible=1;marginBottom=0;" parent="1" vertex="1">
                    <mxGeometry x="199" y="760" width="120" height="161" as="geometry"/>
                </mxCell>
                <mxCell id="Bm1LBRGZsNO9c_nWnn3g-7" value="+ owner_id: int " style="text;strokeColor=none;fillColor=none;align=left;verticalAlign=top;spacingLeft=4;spacingRight=4;overflow=hidden;rotatable=0;points=[[0,0.5],[1,0.5]];portConstraint=eastwest;" parent="Bm1LBRGZsNO9c_nWnn3g-6" vertex="1">
                    <mxGeometry y="26" width="120" height="25" as="geometry"/>
                </mxCell>
                <mxCell id="dmPfmuvCO5BIkzRvhQW3-2" value="+ created: time_t" style="text;strokeColor=none;fillColor=none;align=left;verticalAlign=top;spacingLeft=4;spacingRight=4;overflow=hidden;rotatable=0;points=[[0,0.5],[1,0.5]];portConstraint=eastwest;" parent="Bm1LBRGZsNO9c_nWnn3g-6" vertex="1">
                    <mxGeometry y="51" width="120" height="25" as="geometry"/>
                </mxCell>
                <mxCell id="dmPfmuvCO5BIkzRvhQW3-3" value="+ content: Content" style="text;strokeColor=none;fillColor=none;align=left;verticalAlign=top;spacingLeft=4;spacingRight=4;overflow=hidden;rotatable=0;points=[[0,0.5],[1,0.5]];portConstraint=eastwest;" parent="Bm1LBRGZsNO9c_nWnn3g-6" vertex="1">
                    <mxGeometry y="76" width="120" height="25" as="geometry"/>
                </mxCell>
                <mxCell id="Bm1LBRGZsNO9c_nWnn3g-8" value="+ is_marked: bool" style="text;strokeColor=none;fillColor=none;align=left;verticalAlign=top;spacingLeft=4;spacingRight=4;overflow=hidden;rotatable=0;points=[[0,0.5],[1,0.5]];portConstraint=eastwest;" parent="Bm1LBRGZsNO9c_nWnn3g-6" vertex="1">
                    <mxGeometry y="101" width="120" height="25" as="geometry"/>
                </mxCell>
                <mxCell id="Bm1LBRGZsNO9c_nWnn3g-9" value="" style="line;strokeWidth=1;fillColor=none;align=left;verticalAlign=middle;spacingTop=-1;spacingLeft=3;spacingRight=3;rotatable=0;labelPosition=right;points=[];portConstraint=eastwest;" parent="Bm1LBRGZsNO9c_nWnn3g-6" vertex="1">
                    <mxGeometry y="126" width="120" height="10" as="geometry"/>
                </mxCell>
                <mxCell id="Bm1LBRGZsNO9c_nWnn3g-10" value="+ Message()" style="text;strokeColor=none;fillColor=none;align=left;verticalAlign=top;spacingLeft=4;spacingRight=4;overflow=hidden;rotatable=0;points=[[0,0.5],[1,0.5]];portConstraint=eastwest;" parent="Bm1LBRGZsNO9c_nWnn3g-6" vertex="1">
                    <mxGeometry y="136" width="120" height="25" as="geometry"/>
                </mxCell>
                <mxCell id="dmPfmuvCO5BIkzRvhQW3-25" value="Controller" style="swimlane;fontStyle=1;align=center;verticalAlign=top;childLayout=stackLayout;horizontal=1;startSize=26;horizontalStack=0;resizeParent=1;resizeParentMax=0;resizeLast=0;collapsible=1;marginBottom=0;" parent="1" vertex="1">
                    <mxGeometry x="2153" y="392.5" width="320" height="124" as="geometry"/>
                </mxCell>
                <mxCell id="dmPfmuvCO5BIkzRvhQW3-32" value="- router_: unordered_map&lt;TypeOfUseCase,&#10;unique_ptr&lt;IHandle&gt;&gt;" style="text;strokeColor=none;fillColor=none;align=left;verticalAlign=top;spacingLeft=4;spacingRight=4;overflow=hidden;rotatable=0;points=[[0,0.5],[1,0.5]];portConstraint=eastwest;" parent="dmPfmuvCO5BIkzRvhQW3-25" vertex="1">
                    <mxGeometry y="26" width="320" height="38" as="geometry"/>
                </mxCell>
                <mxCell id="dmPfmuvCO5BIkzRvhQW3-27" value="" style="line;strokeWidth=1;fillColor=none;align=left;verticalAlign=middle;spacingTop=-1;spacingLeft=3;spacingRight=3;rotatable=0;labelPosition=right;points=[];portConstraint=eastwest;" parent="dmPfmuvCO5BIkzRvhQW3-25" vertex="1">
                    <mxGeometry y="64" width="320" height="10" as="geometry"/>
                </mxCell>
                <mxCell id="dmPfmuvCO5BIkzRvhQW3-28" value="+ RegisterHandler(handler: unique_ptr&lt;IHandler&gt;&amp;&amp;)" style="text;strokeColor=none;fillColor=none;align=left;verticalAlign=top;spacingLeft=4;spacingRight=4;overflow=hidden;rotatable=0;points=[[0,0.5],[1,0.5]];portConstraint=eastwest;" parent="dmPfmuvCO5BIkzRvhQW3-25" vertex="1">
                    <mxGeometry y="74" width="320" height="25" as="geometry"/>
                </mxCell>
                <mxCell id="l3VD5_HxADrF9s5NhGB4-5" value="+ ExecuteHandler(request: Request const&amp;): Response" style="text;strokeColor=none;fillColor=none;align=left;verticalAlign=top;spacingLeft=4;spacingRight=4;overflow=hidden;rotatable=0;points=[[0,0.5],[1,0.5]];portConstraint=eastwest;" parent="dmPfmuvCO5BIkzRvhQW3-25" vertex="1">
                    <mxGeometry y="99" width="320" height="25" as="geometry"/>
                </mxCell>
                <mxCell id="dmPfmuvCO5BIkzRvhQW3-37" value="AddChatUC" style="swimlane;fontStyle=1;align=center;verticalAlign=top;childLayout=stackLayout;horizontal=1;startSize=25;horizontalStack=0;resizeParent=1;resizeParentMax=0;resizeLast=0;collapsible=1;marginBottom=0;html=1;" parent="1" vertex="1">
                    <mxGeometry x="953" y="720" width="242" height="225" as="geometry"/>
                </mxCell>
                <mxCell id="dmPfmuvCO5BIkzRvhQW3-38" value="- users_: vector&lt;int&gt;" style="text;strokeColor=none;fillColor=none;align=left;verticalAlign=top;spacingLeft=4;spacingRight=4;overflow=hidden;rotatable=0;points=[[0,0.5],[1,0.5]];portConstraint=eastwest;" parent="dmPfmuvCO5BIkzRvhQW3-37" vertex="1">
                    <mxGeometry y="25" width="242" height="25" as="geometry"/>
                </mxCell>
                <mxCell id="bCNP0cULC8ASSDNxjgNn-3" value="- checker_user_: shared_ptr&lt;ICheckUser&gt;" style="text;strokeColor=none;fillColor=none;align=left;verticalAlign=top;spacingLeft=4;spacingRight=4;overflow=hidden;rotatable=0;points=[[0,0.5],[1,0.5]];portConstraint=eastwest;fontStyle=0" parent="dmPfmuvCO5BIkzRvhQW3-37" vertex="1">
                    <mxGeometry y="50" width="242" height="25" as="geometry"/>
                </mxCell>
                <mxCell id="t9zF6-tFFcsAJkriFhJy-186" value="- creater_chat_: shared_ptr&lt;ICreaterChat&gt;" style="text;strokeColor=none;fillColor=none;align=left;verticalAlign=top;spacingLeft=4;spacingRight=4;overflow=hidden;rotatable=0;points=[[0,0.5],[1,0.5]];portConstraint=eastwest;fontStyle=0" parent="dmPfmuvCO5BIkzRvhQW3-37" vertex="1">
                    <mxGeometry y="75" width="242" height="25" as="geometry"/>
                </mxCell>
                <mxCell id="bCNP0cULC8ASSDNxjgNn-4" value="- setter_chat_: shared_ptr&lt;ISetChat&gt;" style="text;strokeColor=none;fillColor=none;align=left;verticalAlign=top;spacingLeft=4;spacingRight=4;overflow=hidden;rotatable=0;points=[[0,0.5],[1,0.5]];portConstraint=eastwest;fontStyle=0" parent="dmPfmuvCO5BIkzRvhQW3-37" vertex="1">
                    <mxGeometry y="100" width="242" height="25" as="geometry"/>
                </mxCell>
                <mxCell id="dmPfmuvCO5BIkzRvhQW3-39" value="" style="line;strokeWidth=1;fillColor=none;align=left;verticalAlign=middle;spacingTop=-1;spacingLeft=3;spacingRight=3;rotatable=0;labelPosition=right;points=[];portConstraint=eastwest;" parent="dmPfmuvCO5BIkzRvhQW3-37" vertex="1">
                    <mxGeometry y="125" width="242" height="10" as="geometry"/>
                </mxCell>
                <mxCell id="dmPfmuvCO5BIkzRvhQW3-1" value="+ AddChatUC(, &#10;getter_user: shared_ptr&lt;IGetUser&gt;, &#10;creater_chat: shared_ptr&lt;ICreateChat&gt;,&#10;setter_chat: shared_ptr&lt;ISetChat&gt;)" style="text;strokeColor=none;fillColor=none;align=left;verticalAlign=top;spacingLeft=4;spacingRight=4;overflow=hidden;rotatable=0;points=[[0,0.5],[1,0.5]];portConstraint=eastwest;" parent="dmPfmuvCO5BIkzRvhQW3-37" vertex="1">
                    <mxGeometry y="135" width="242" height="65" as="geometry"/>
                </mxCell>
                <mxCell id="leu3_-LH81RKHLBO9N2G-58" value="+ Execute(users: vector&lt;int&gt;): int" style="text;strokeColor=none;fillColor=none;align=left;verticalAlign=top;spacingLeft=4;spacingRight=4;overflow=hidden;rotatable=0;points=[[0,0.5],[1,0.5]];portConstraint=eastwest;" parent="dmPfmuvCO5BIkzRvhQW3-37" vertex="1">
                    <mxGeometry y="200" width="242" height="25" as="geometry"/>
                </mxCell>
                <mxCell id="qE9S9bq8S4wY-z4ullLe-2" value="" style="endArrow=diamondThin;endFill=1;endSize=24;html=1;edgeStyle=elbowEdgeStyle;" parent="1" source="Bm1LBRGZsNO9c_nWnn3g-6" target="Bm1LBRGZsNO9c_nWnn3g-1" edge="1">
                    <mxGeometry width="160" relative="1" as="geometry">
                        <mxPoint x="470" y="570" as="sourcePoint"/>
                        <mxPoint x="630" y="570" as="targetPoint"/>
                        <Array as="points">
                            <mxPoint x="260" y="700"/>
                            <mxPoint x="275" y="725"/>
                            <mxPoint x="140" y="755"/>
                            <mxPoint x="70" y="730"/>
                            <mxPoint x="130" y="860"/>
                        </Array>
                    </mxGeometry>
                </mxCell>
                <mxCell id="qE9S9bq8S4wY-z4ullLe-12" value="UpdateChatUC" style="swimlane;fontStyle=1;align=center;verticalAlign=top;childLayout=stackLayout;horizontal=1;startSize=25;horizontalStack=0;resizeParent=1;resizeParentMax=0;resizeLast=0;collapsible=1;marginBottom=0;html=1;" parent="1" vertex="1">
                    <mxGeometry x="1770" y="760" width="245" height="255" as="geometry"/>
                </mxCell>
                <mxCell id="t9zF6-tFFcsAJkriFhJy-211" value="- user_id_: int" style="text;strokeColor=none;fillColor=none;align=left;verticalAlign=top;spacingLeft=4;spacingRight=4;overflow=hidden;rotatable=0;points=[[0,0.5],[1,0.5]];portConstraint=eastwest;" parent="qE9S9bq8S4wY-z4ullLe-12" vertex="1">
                    <mxGeometry y="25" width="245" height="25" as="geometry"/>
                </mxCell>
                <mxCell id="qE9S9bq8S4wY-z4ullLe-13" value="- chat_id_: int" style="text;strokeColor=none;fillColor=none;align=left;verticalAlign=top;spacingLeft=4;spacingRight=4;overflow=hidden;rotatable=0;points=[[0,0.5],[1,0.5]];portConstraint=eastwest;" parent="qE9S9bq8S4wY-z4ullLe-12" vertex="1">
                    <mxGeometry y="50" width="245" height="25" as="geometry"/>
                </mxCell>
                <mxCell id="t9zF6-tFFcsAJkriFhJy-226" value="- from_time_: time_t" style="text;strokeColor=none;fillColor=none;align=left;verticalAlign=top;spacingLeft=4;spacingRight=4;overflow=hidden;rotatable=0;points=[[0,0.5],[1,0.5]];portConstraint=eastwest;" parent="qE9S9bq8S4wY-z4ullLe-12" vertex="1">
                    <mxGeometry y="75" width="245" height="25" as="geometry"/>
                </mxCell>
                <mxCell id="t9zF6-tFFcsAJkriFhJy-213" value="- checker_user_: shared_ptr&lt;ICheckUser&gt;" style="text;strokeColor=none;fillColor=none;align=left;verticalAlign=top;spacingLeft=4;spacingRight=4;overflow=hidden;rotatable=0;points=[[0,0.5],[1,0.5]];portConstraint=eastwest;" parent="qE9S9bq8S4wY-z4ullLe-12" vertex="1">
                    <mxGeometry y="100" width="245" height="25" as="geometry"/>
                </mxCell>
                <mxCell id="t9zF6-tFFcsAJkriFhJy-214" value="- getter_msgs_: shared_ptr&lt;IGetMsgs&gt;" style="text;strokeColor=none;fillColor=none;align=left;verticalAlign=top;spacingLeft=4;spacingRight=4;overflow=hidden;rotatable=0;points=[[0,0.5],[1,0.5]];portConstraint=eastwest;" parent="qE9S9bq8S4wY-z4ullLe-12" vertex="1">
                    <mxGeometry y="125" width="245" height="25" as="geometry"/>
                </mxCell>
                <mxCell id="qE9S9bq8S4wY-z4ullLe-14" value="" style="line;strokeWidth=1;fillColor=none;align=left;verticalAlign=middle;spacingTop=-1;spacingLeft=3;spacingRight=3;rotatable=0;labelPosition=right;points=[];portConstraint=eastwest;" parent="qE9S9bq8S4wY-z4ullLe-12" vertex="1">
                    <mxGeometry y="150" width="245" height="10" as="geometry"/>
                </mxCell>
                <mxCell id="leu3_-LH81RKHLBO9N2G-59" value="+ UpdateChatUC(&#10;checker_user_: shared_ptr&lt;ICheckUser&gt;, &#10;getter_msgs:shared_ptr&lt;IGetMsgs&gt;)" style="text;strokeColor=none;fillColor=none;align=left;verticalAlign=top;spacingLeft=4;spacingRight=4;overflow=hidden;rotatable=0;points=[[0,0.5],[1,0.5]];portConstraint=eastwest;" parent="qE9S9bq8S4wY-z4ullLe-12" vertex="1">
                    <mxGeometry y="160" width="245" height="54" as="geometry"/>
                </mxCell>
                <mxCell id="Bm1LBRGZsNO9c_nWnn3g-4" value="+ Execute(user_id: int, chat_id: int,&#10;from_time: time_t): vector&lt;Message&gt;" style="text;strokeColor=none;fillColor=none;align=left;verticalAlign=top;spacingLeft=4;spacingRight=4;overflow=hidden;rotatable=0;points=[[0,0.5],[1,0.5]];portConstraint=eastwest;" parent="qE9S9bq8S4wY-z4ullLe-12" vertex="1">
                    <mxGeometry y="214" width="245" height="41" as="geometry"/>
                </mxCell>
                <mxCell id="qE9S9bq8S4wY-z4ullLe-17" value="SendMsgUC" style="swimlane;fontStyle=1;align=center;verticalAlign=top;childLayout=stackLayout;horizontal=1;startSize=25;horizontalStack=0;resizeParent=1;resizeParentMax=0;resizeLast=0;collapsible=1;marginBottom=0;html=1;" parent="1" vertex="1">
                    <mxGeometry x="1367.25" y="744" width="245.5" height="292" as="geometry"/>
                </mxCell>
                <mxCell id="leu3_-LH81RKHLBO9N2G-26" value="- user_id_: int" style="text;strokeColor=none;fillColor=none;align=left;verticalAlign=top;spacingLeft=4;spacingRight=4;overflow=hidden;rotatable=0;points=[[0,0.5],[1,0.5]];portConstraint=eastwest;" parent="qE9S9bq8S4wY-z4ullLe-17" vertex="1">
                    <mxGeometry y="25" width="245.5" height="25" as="geometry"/>
                </mxCell>
                <mxCell id="t9zF6-tFFcsAJkriFhJy-201" value="- chat_id_: int" style="text;strokeColor=none;fillColor=none;align=left;verticalAlign=top;spacingLeft=4;spacingRight=4;overflow=hidden;rotatable=0;points=[[0,0.5],[1,0.5]];portConstraint=eastwest;" parent="qE9S9bq8S4wY-z4ullLe-17" vertex="1">
                    <mxGeometry y="50" width="245.5" height="25" as="geometry"/>
                </mxCell>
                <mxCell id="leu3_-LH81RKHLBO9N2G-36" value="- content_: Content" style="text;strokeColor=none;fillColor=none;align=left;verticalAlign=top;spacingLeft=4;spacingRight=4;overflow=hidden;rotatable=0;points=[[0,0.5],[1,0.5]];portConstraint=eastwest;" parent="qE9S9bq8S4wY-z4ullLe-17" vertex="1">
                    <mxGeometry y="75" width="245.5" height="25" as="geometry"/>
                </mxCell>
                <mxCell id="t9zF6-tFFcsAJkriFhJy-200" value="- checker_user_: shared_ptr&lt;ICheckUser&gt;" style="text;strokeColor=none;fillColor=none;align=left;verticalAlign=top;spacingLeft=4;spacingRight=4;overflow=hidden;rotatable=0;points=[[0,0.5],[1,0.5]];portConstraint=eastwest;" parent="qE9S9bq8S4wY-z4ullLe-17" vertex="1">
                    <mxGeometry y="100" width="245.5" height="25" as="geometry"/>
                </mxCell>
                <mxCell id="t9zF6-tFFcsAJkriFhJy-207" value="- analyser_text_: shared_ptr&lt;IAnalysisText&gt;" style="text;strokeColor=none;fillColor=none;align=left;verticalAlign=top;spacingLeft=4;spacingRight=4;overflow=hidden;rotatable=0;points=[[0,0.5],[1,0.5]];portConstraint=eastwest;" parent="qE9S9bq8S4wY-z4ullLe-17" vertex="1">
                    <mxGeometry y="125" width="245.5" height="25" as="geometry"/>
                </mxCell>
                <mxCell id="t9zF6-tFFcsAJkriFhJy-206" value="- sender_msg_: shared_ptr&lt;ISendMsg&gt;" style="text;strokeColor=none;fillColor=none;align=left;verticalAlign=top;spacingLeft=4;spacingRight=4;overflow=hidden;rotatable=0;points=[[0,0.5],[1,0.5]];portConstraint=eastwest;" parent="qE9S9bq8S4wY-z4ullLe-17" vertex="1">
                    <mxGeometry y="150" width="245.5" height="25" as="geometry"/>
                </mxCell>
                <mxCell id="qE9S9bq8S4wY-z4ullLe-19" value="" style="line;strokeWidth=1;fillColor=none;align=left;verticalAlign=middle;spacingTop=-1;spacingLeft=3;spacingRight=3;rotatable=0;labelPosition=right;points=[];portConstraint=eastwest;" parent="qE9S9bq8S4wY-z4ullLe-17" vertex="1">
                    <mxGeometry y="175" width="245.5" height="10" as="geometry"/>
                </mxCell>
                <mxCell id="dmPfmuvCO5BIkzRvhQW3-10" value="+ SendMsgUC(&#10;checker_user_: shared_ptr&lt;ICheckUser&gt;,&#10;analyser_text: shared_ptr&lt;IAnalysisText&gt;, &#10;sender_msg: shared_ptr&lt;ISendMsg&gt;)" style="text;strokeColor=none;fillColor=none;align=left;verticalAlign=top;spacingLeft=4;spacingRight=4;overflow=hidden;rotatable=0;points=[[0,0.5],[1,0.5]];portConstraint=eastwest;fontStyle=0" parent="qE9S9bq8S4wY-z4ullLe-17" vertex="1">
                    <mxGeometry y="185" width="245.5" height="68" as="geometry"/>
                </mxCell>
                <mxCell id="t9zF6-tFFcsAJkriFhJy-198" value="+ Execute(user_id: int, chat_id: int, &#10;content: Content) " style="text;strokeColor=none;fillColor=none;align=left;verticalAlign=top;spacingLeft=4;spacingRight=4;overflow=hidden;rotatable=0;points=[[0,0.5],[1,0.5]];portConstraint=eastwest;" parent="qE9S9bq8S4wY-z4ullLe-17" vertex="1">
                    <mxGeometry y="253" width="245.5" height="39" as="geometry"/>
                </mxCell>
                <mxCell id="leu3_-LH81RKHLBO9N2G-37" value="Content" style="swimlane;fontStyle=1;align=center;verticalAlign=top;childLayout=stackLayout;horizontal=1;startSize=26;horizontalStack=0;resizeParent=1;resizeParentMax=0;resizeLast=0;collapsible=1;marginBottom=0;html=1;" parent="1" vertex="1">
                    <mxGeometry x="184" y="1000" width="150" height="111" as="geometry"/>
                </mxCell>
                <mxCell id="leu3_-LH81RKHLBO9N2G-38" value="+ data: string" style="text;strokeColor=none;fillColor=none;align=left;verticalAlign=top;spacingLeft=4;spacingRight=4;overflow=hidden;rotatable=0;points=[[0,0.5],[1,0.5]];portConstraint=eastwest;html=1;" parent="leu3_-LH81RKHLBO9N2G-37" vertex="1">
                    <mxGeometry y="26" width="150" height="25" as="geometry"/>
                </mxCell>
                <mxCell id="leu3_-LH81RKHLBO9N2G-41" value="+ type: TypeOfContent" style="text;strokeColor=none;fillColor=none;align=left;verticalAlign=top;spacingLeft=4;spacingRight=4;overflow=hidden;rotatable=0;points=[[0,0.5],[1,0.5]];portConstraint=eastwest;html=1;" parent="leu3_-LH81RKHLBO9N2G-37" vertex="1">
                    <mxGeometry y="51" width="150" height="25" as="geometry"/>
                </mxCell>
                <mxCell id="leu3_-LH81RKHLBO9N2G-39" value="" style="line;strokeWidth=1;fillColor=none;align=left;verticalAlign=middle;spacingTop=-1;spacingLeft=3;spacingRight=3;rotatable=0;labelPosition=right;points=[];portConstraint=eastwest;html=1;" parent="leu3_-LH81RKHLBO9N2G-37" vertex="1">
                    <mxGeometry y="76" width="150" height="10" as="geometry"/>
                </mxCell>
                <mxCell id="leu3_-LH81RKHLBO9N2G-49" value="+ Content()" style="text;strokeColor=none;fillColor=none;align=left;verticalAlign=top;spacingLeft=4;spacingRight=4;overflow=hidden;rotatable=0;points=[[0,0.5],[1,0.5]];portConstraint=eastwest;html=1;" parent="leu3_-LH81RKHLBO9N2G-37" vertex="1">
                    <mxGeometry y="86" width="150" height="25" as="geometry"/>
                </mxCell>
                <mxCell id="leu3_-LH81RKHLBO9N2G-55" value="" style="endArrow=diamondThin;endFill=1;endSize=24;html=1;rounded=1;edgeStyle=elbowEdgeStyle;" parent="1" source="leu3_-LH81RKHLBO9N2G-37" target="Bm1LBRGZsNO9c_nWnn3g-6" edge="1">
                    <mxGeometry width="160" relative="1" as="geometry">
                        <mxPoint x="-205" y="548.9983018867924" as="sourcePoint"/>
                        <mxPoint x="-110" y="549.8945283018868" as="targetPoint"/>
                        <Array as="points">
                            <mxPoint x="265" y="920"/>
                            <mxPoint x="140" y="975"/>
                            <mxPoint x="140" y="833"/>
                            <mxPoint x="155" y="870"/>
                            <mxPoint x="45" y="730"/>
                            <mxPoint x="60" y="965"/>
                        </Array>
                    </mxGeometry>
                </mxCell>
                <mxCell id="9OPvWz-Zwt0wguvvxYVE-35" value="" style="endArrow=diamondThin;endFill=1;endSize=24;html=1;curved=1;" parent="1" source="l3VD5_HxADrF9s5NhGB4-1" target="dmPfmuvCO5BIkzRvhQW3-25" edge="1">
                    <mxGeometry width="160" relative="1" as="geometry">
                        <mxPoint x="1720" y="475" as="sourcePoint"/>
                        <mxPoint x="1340" y="486.0662393162395" as="targetPoint"/>
                    </mxGeometry>
                </mxCell>
                <mxCell id="9OPvWz-Zwt0wguvvxYVE-59" value="Server&lt;br&gt;NOTE: Работа с сетью через boost.asio и boost.beast&lt;span style=&quot;color: rgba(0 , 0 , 0 , 0) ; font-family: monospace ; font-size: 0px&quot;&gt;%3CmxGraphModel%3E%3Croot%3E%3CmxCell%20id%3D%220%22%2F%3E%3CmxCell%20id%3D%221%22%20parent%3D%220%22%2F%3E%3CmxCell%20id%3D%222%22%20value%3D%22NOTE%3A%20%D0%A0%D0%B0%D0%B1%D0%BE%D1%82%D0%B0%20%D1%81%20%D1%81%D0%B5%D1%82%D1%8C%D1%8E%20%D1%87%D0%B5%D1%80%D0%B5%D0%B7%20boost.asio%20%D0%B8%20boost.beast%22%20style%3D%22text%3Bhtml%3D1%3Balign%3Dcenter%3BverticalAlign%3Dmiddle%3Bresizable%3D0%3Bpoints%3D%5B%5D%3Bautosize%3D1%3BstrokeColor%3Dnone%3BfillColor%3Dnone%3BfontSize%3D24%3B%22%20vertex%3D%221%22%20parent%3D%221%22%3E%3CmxGeometry%20x%3D%222313%22%20y%3D%22567%22%20width%3D%22600%22%20height%3D%2235%22%20as%3D%22geometry%22%2F%3E%3C%2FmxCell%3E%3C%2Froot%3E%3C%2FmxGraphModel%3E&lt;/span&gt;&lt;span style=&quot;color: rgba(0 , 0 , 0 , 0) ; font-family: monospace ; font-size: 0px&quot;&gt;%3CmxGraphModel%3E%3Croot%3E%3CmxCell%20id%3D%220%22%2F%3E%3CmxCell%20id%3D%221%22%20parent%3D%220%22%2F%3E%3CmxCell%20id%3D%222%22%20value%3D%22NOTE%3A%20%D0%A0%D0%B0%D0%B1%D0%BE%D1%82%D0%B0%20%D1%81%20%D1%81%D0%B5%D1%82%D1%8C%D1%8E%20%D1%87%D0%B5%D1%80%D0%B5%D0%B7%20boost.asio%20%D0%B8%20boost.beast%22%20style%3D%22text%3Bhtml%3D1%3Balign%3Dcenter%3BverticalAlign%3Dmiddle%3Bresizable%3D0%3Bpoints%3D%5B%5D%3Bautosize%3D1%3BstrokeColor%3Dnone%3BfillColor%3Dnone%3BfontSize%3D24%3B%22%20vertex%3D%221%22%20parent%3D%221%22%3E%3CmxGeometry%20x%3D%222313%22%20y%3D%22567%22%20width%3D%22600%22%20height%3D%2235%22%20as%3D%22geometry%22%2F%3E%3C%2FmxCell%3E%3C%2Froot%3E%3C%2FmxGraphModel%3E&lt;/span&gt;" style="html=1;fontSize=24;" parent="1" vertex="1">
                    <mxGeometry x="2587" y="394.5" width="663" height="122" as="geometry"/>
                </mxCell>
                <mxCell id="9OPvWz-Zwt0wguvvxYVE-60" value="" style="endArrow=diamondThin;endFill=0;endSize=24;html=1;curved=1;" parent="1" source="dmPfmuvCO5BIkzRvhQW3-25" target="9OPvWz-Zwt0wguvvxYVE-59" edge="1">
                    <mxGeometry width="160" relative="1" as="geometry">
                        <mxPoint x="2025" y="774.9984955752213" as="sourcePoint"/>
                        <mxPoint x="2580" y="777.2905309734515" as="targetPoint"/>
                    </mxGeometry>
                </mxCell>
                <mxCell id="l3VD5_HxADrF9s5NhGB4-1" value="&lt;span style=&quot;font-weight: normal&quot;&gt;&amp;lt;&amp;lt;interface&amp;gt;&amp;gt;&lt;/span&gt;&lt;br&gt;IHandler" style="swimlane;fontStyle=1;align=center;verticalAlign=top;childLayout=stackLayout;horizontal=1;startSize=38;horizontalStack=0;resizeParent=1;resizeParentMax=0;resizeLast=0;collapsible=1;marginBottom=0;html=1;" parent="1" vertex="1">
                    <mxGeometry x="1757" y="414" width="280" height="73" as="geometry"/>
                </mxCell>
                <mxCell id="l3VD5_HxADrF9s5NhGB4-3" value="" style="line;strokeWidth=1;fillColor=none;align=left;verticalAlign=middle;spacingTop=-1;spacingLeft=3;spacingRight=3;rotatable=0;labelPosition=right;points=[];portConstraint=eastwest;" parent="l3VD5_HxADrF9s5NhGB4-1" vertex="1">
                    <mxGeometry y="38" width="280" height="10" as="geometry"/>
                </mxCell>
                <mxCell id="l3VD5_HxADrF9s5NhGB4-6" value="+ Execute(request: Request const&amp;): Response" style="text;strokeColor=none;fillColor=none;align=left;verticalAlign=top;spacingLeft=4;spacingRight=4;overflow=hidden;rotatable=0;points=[[0,0.5],[1,0.5]];portConstraint=eastwest;" parent="l3VD5_HxADrF9s5NhGB4-1" vertex="1">
                    <mxGeometry y="48" width="280" height="25" as="geometry"/>
                </mxCell>
                <mxCell id="kb_3mGIxlnbqVhcPvbaU-2" value="SendMsgHandler" style="swimlane;fontStyle=1;align=center;verticalAlign=top;childLayout=stackLayout;horizontal=1;startSize=25;horizontalStack=0;resizeParent=1;resizeParentMax=0;resizeLast=0;collapsible=1;marginBottom=0;html=1;" parent="1" vertex="1">
                    <mxGeometry x="1371" y="556" width="238" height="130" as="geometry"/>
                </mxCell>
                <mxCell id="kb_3mGIxlnbqVhcPvbaU-19" value="+ send_chat_: SendMsgUC" style="text;strokeColor=none;fillColor=none;align=left;verticalAlign=top;spacingLeft=4;spacingRight=4;overflow=hidden;rotatable=0;points=[[0,0.5],[1,0.5]];portConstraint=eastwest;" parent="kb_3mGIxlnbqVhcPvbaU-2" vertex="1">
                    <mxGeometry y="25" width="238" height="25" as="geometry"/>
                </mxCell>
                <mxCell id="kb_3mGIxlnbqVhcPvbaU-3" value="" style="line;strokeWidth=1;fillColor=none;align=left;verticalAlign=middle;spacingTop=-1;spacingLeft=3;spacingRight=3;rotatable=0;labelPosition=right;points=[];portConstraint=eastwest;" parent="kb_3mGIxlnbqVhcPvbaU-2" vertex="1">
                    <mxGeometry y="50" width="238" height="10" as="geometry"/>
                </mxCell>
                <mxCell id="8" value="+ SendMsgHandler(&#10;checker_user: shared_ptr&lt;ICheckUser&gt;,&#10;analyser_text: shared_ptr&lt;IAnalyserText&gt;,&#10; sender_msg: shared_ptr&lt;ISendMsg&gt;)" style="text;strokeColor=none;fillColor=none;align=left;verticalAlign=top;spacingLeft=4;spacingRight=4;overflow=hidden;rotatable=0;points=[[0,0.5],[1,0.5]];portConstraint=eastwest;fontStyle=0" parent="kb_3mGIxlnbqVhcPvbaU-2" vertex="1">
                    <mxGeometry y="60" width="238" height="70" as="geometry"/>
                </mxCell>
                <mxCell id="kb_3mGIxlnbqVhcPvbaU-34" value="UpdateChatHandler" style="swimlane;fontStyle=1;align=center;verticalAlign=top;childLayout=stackLayout;horizontal=1;startSize=25;horizontalStack=0;resizeParent=1;resizeParentMax=0;resizeLast=0;collapsible=1;marginBottom=0;html=1;" parent="1" vertex="1">
                    <mxGeometry x="1779.5" y="582" width="226" height="119" as="geometry"/>
                </mxCell>
                <mxCell id="kb_3mGIxlnbqVhcPvbaU-35" value="+ update_chat_: UpdateChatUC" style="text;strokeColor=none;fillColor=none;align=left;verticalAlign=top;spacingLeft=4;spacingRight=4;overflow=hidden;rotatable=0;points=[[0,0.5],[1,0.5]];portConstraint=eastwest;" parent="kb_3mGIxlnbqVhcPvbaU-34" vertex="1">
                    <mxGeometry y="25" width="226" height="25" as="geometry"/>
                </mxCell>
                <mxCell id="kb_3mGIxlnbqVhcPvbaU-36" value="" style="line;strokeWidth=1;fillColor=none;align=left;verticalAlign=middle;spacingTop=-1;spacingLeft=3;spacingRight=3;rotatable=0;labelPosition=right;points=[];portConstraint=eastwest;" parent="kb_3mGIxlnbqVhcPvbaU-34" vertex="1">
                    <mxGeometry y="50" width="226" height="10" as="geometry"/>
                </mxCell>
                <mxCell id="9" value="+ UpdateChatHandler(&#10;checker_user: shared_ptr&lt;ICheckUser&gt;,&#10;getter_msgs_: shared_ptr&lt;IGetMsgs&gt;)" style="text;strokeColor=none;fillColor=none;align=left;verticalAlign=top;spacingLeft=4;spacingRight=4;overflow=hidden;rotatable=0;points=[[0,0.5],[1,0.5]];portConstraint=eastwest;fontStyle=0" parent="kb_3mGIxlnbqVhcPvbaU-34" vertex="1">
                    <mxGeometry y="60" width="226" height="59" as="geometry"/>
                </mxCell>
                <mxCell id="kb_3mGIxlnbqVhcPvbaU-41" value="AddChatHandler" style="swimlane;fontStyle=1;align=center;verticalAlign=top;childLayout=stackLayout;horizontal=1;startSize=25;horizontalStack=0;resizeParent=1;resizeParentMax=0;resizeLast=0;collapsible=1;marginBottom=0;html=1;" parent="1" vertex="1">
                    <mxGeometry x="951" y="519" width="238" height="127" as="geometry"/>
                </mxCell>
                <mxCell id="kb_3mGIxlnbqVhcPvbaU-42" value="+ add_chat_: AddChatUC" style="text;strokeColor=none;fillColor=none;align=left;verticalAlign=top;spacingLeft=4;spacingRight=4;overflow=hidden;rotatable=0;points=[[0,0.5],[1,0.5]];portConstraint=eastwest;" parent="kb_3mGIxlnbqVhcPvbaU-41" vertex="1">
                    <mxGeometry y="25" width="238" height="25" as="geometry"/>
                </mxCell>
                <mxCell id="kb_3mGIxlnbqVhcPvbaU-43" value="" style="line;strokeWidth=1;fillColor=none;align=left;verticalAlign=middle;spacingTop=-1;spacingLeft=3;spacingRight=3;rotatable=0;labelPosition=right;points=[];portConstraint=eastwest;" parent="kb_3mGIxlnbqVhcPvbaU-41" vertex="1">
                    <mxGeometry y="50" width="238" height="10" as="geometry"/>
                </mxCell>
                <mxCell id="7" value="+ AddChatHandler(&#10;checker_user: shared_ptr&lt;ICheckUser&gt;,&#10;creater_chat_: shared_ptr&lt;ICreateChat&gt;, &#10;setter_chat: shared_ptr&lt;ISetChat&gt;)" style="text;strokeColor=none;fillColor=none;align=left;verticalAlign=top;spacingLeft=4;spacingRight=4;overflow=hidden;rotatable=0;points=[[0,0.5],[1,0.5]];portConstraint=eastwest;fontStyle=0" parent="kb_3mGIxlnbqVhcPvbaU-41" vertex="1">
                    <mxGeometry y="60" width="238" height="67" as="geometry"/>
                </mxCell>
                <mxCell id="kb_3mGIxlnbqVhcPvbaU-50" value="&lt;span style=&quot;font-weight: normal&quot;&gt;&amp;lt;&amp;lt;enumeration&amp;gt;&amp;gt;&lt;/span&gt;&lt;br&gt;&lt;span style=&quot;text-align: left&quot;&gt;TypeOfContent&lt;/span&gt;" style="swimlane;fontStyle=1;align=center;verticalAlign=top;childLayout=stackLayout;horizontal=1;startSize=40;horizontalStack=0;resizeParent=1;resizeParentMax=0;resizeLast=0;collapsible=1;marginBottom=0;html=1;" parent="1" vertex="1">
                    <mxGeometry x="199" y="1200" width="120" height="90" as="geometry"/>
                </mxCell>
                <mxCell id="kb_3mGIxlnbqVhcPvbaU-51" value="TEXT" style="text;strokeColor=none;fillColor=none;align=left;verticalAlign=top;spacingLeft=4;spacingRight=4;overflow=hidden;rotatable=0;points=[[0,0.5],[1,0.5]];portConstraint=eastwest;html=1;" parent="kb_3mGIxlnbqVhcPvbaU-50" vertex="1">
                    <mxGeometry y="40" width="120" height="25" as="geometry"/>
                </mxCell>
                <mxCell id="kb_3mGIxlnbqVhcPvbaU-52" value="JPEG" style="text;strokeColor=none;fillColor=none;align=left;verticalAlign=top;spacingLeft=4;spacingRight=4;overflow=hidden;rotatable=0;points=[[0,0.5],[1,0.5]];portConstraint=eastwest;html=1;" parent="kb_3mGIxlnbqVhcPvbaU-50" vertex="1">
                    <mxGeometry y="65" width="120" height="25" as="geometry"/>
                </mxCell>
                <mxCell id="kb_3mGIxlnbqVhcPvbaU-59" value="&amp;lt;&amp;lt;interface&amp;gt;&amp;gt;&lt;br&gt;&lt;b&gt;Request&lt;/b&gt;" style="swimlane;fontStyle=0;align=center;verticalAlign=top;childLayout=stackLayout;horizontal=1;startSize=39;horizontalStack=0;resizeParent=1;resizeParentMax=0;resizeLast=0;collapsible=1;marginBottom=0;html=1;" parent="1" vertex="1">
                    <mxGeometry x="1849" y="111" width="316" height="99" as="geometry"/>
                </mxCell>
                <mxCell id="kb_3mGIxlnbqVhcPvbaU-61" value="" style="line;strokeWidth=1;fillColor=none;align=left;verticalAlign=middle;spacingTop=-1;spacingLeft=3;spacingRight=3;rotatable=0;labelPosition=right;points=[];portConstraint=eastwest;" parent="kb_3mGIxlnbqVhcPvbaU-59" vertex="1">
                    <mxGeometry y="39" width="316" height="8" as="geometry"/>
                </mxCell>
                <mxCell id="13" value="+ GetCommand(): TypeOfUseCase" style="text;strokeColor=none;fillColor=none;align=left;verticalAlign=top;spacingLeft=4;spacingRight=4;overflow=hidden;rotatable=0;points=[[0,0.5],[1,0.5]];portConstraint=eastwest;" vertex="1" parent="kb_3mGIxlnbqVhcPvbaU-59">
                    <mxGeometry y="47" width="316" height="26" as="geometry"/>
                </mxCell>
                <mxCell id="25" value="+ GetParameters(): std::unordered_map&lt;string, string&gt;" style="text;strokeColor=none;fillColor=none;align=left;verticalAlign=top;spacingLeft=4;spacingRight=4;overflow=hidden;rotatable=0;points=[[0,0.5],[1,0.5]];portConstraint=eastwest;" vertex="1" parent="kb_3mGIxlnbqVhcPvbaU-59">
                    <mxGeometry y="73" width="316" height="26" as="geometry"/>
                </mxCell>
                <mxCell id="kb_3mGIxlnbqVhcPvbaU-55" value="Response" style="swimlane;fontStyle=1;align=center;verticalAlign=top;childLayout=stackLayout;horizontal=1;startSize=26;horizontalStack=0;resizeParent=1;resizeParentMax=0;resizeLast=0;collapsible=1;marginBottom=0;" parent="1" vertex="1">
                    <mxGeometry x="1484" y="134" width="280" height="60" as="geometry"/>
                </mxCell>
                <mxCell id="kb_3mGIxlnbqVhcPvbaU-57" value="" style="line;strokeWidth=1;fillColor=none;align=left;verticalAlign=middle;spacingTop=-1;spacingLeft=3;spacingRight=3;rotatable=0;labelPosition=right;points=[];portConstraint=eastwest;" parent="kb_3mGIxlnbqVhcPvbaU-55" vertex="1">
                    <mxGeometry y="26" width="280" height="8" as="geometry"/>
                </mxCell>
                <mxCell id="30" value="+ SetParameters(std::unordered_map&lt;string, string&gt;) " style="text;strokeColor=none;fillColor=none;align=left;verticalAlign=top;spacingLeft=4;spacingRight=4;overflow=hidden;rotatable=0;points=[[0,0.5],[1,0.5]];portConstraint=eastwest;" vertex="1" parent="kb_3mGIxlnbqVhcPvbaU-55">
                    <mxGeometry y="34" width="280" height="26" as="geometry"/>
                </mxCell>
                <mxCell id="t9zF6-tFFcsAJkriFhJy-80" value="&lt;span style=&quot;font-weight: normal&quot;&gt;&amp;lt;&amp;lt;interface&amp;gt;&amp;gt;&lt;/span&gt;&lt;br&gt;IAnalysisText" style="swimlane;fontStyle=1;align=center;verticalAlign=top;childLayout=stackLayout;horizontal=1;startSize=45;horizontalStack=0;resizeParent=1;resizeParentMax=0;resizeLast=0;collapsible=1;marginBottom=0;html=1;" parent="1" vertex="1">
                    <mxGeometry x="1368.75" y="1220" width="242.5" height="79" as="geometry"/>
                </mxCell>
                <mxCell id="t9zF6-tFFcsAJkriFhJy-82" value="" style="line;strokeWidth=1;fillColor=none;align=left;verticalAlign=middle;spacingTop=-1;spacingLeft=3;spacingRight=3;rotatable=0;labelPosition=right;points=[];portConstraint=eastwest;html=1;" parent="t9zF6-tFFcsAJkriFhJy-80" vertex="1">
                    <mxGeometry y="45" width="242.5" height="8" as="geometry"/>
                </mxCell>
                <mxCell id="t9zF6-tFFcsAJkriFhJy-83" value="+ AnalysisText(msg: string const&amp;amp;): bool" style="text;strokeColor=none;fillColor=none;align=left;verticalAlign=top;spacingLeft=4;spacingRight=4;overflow=hidden;rotatable=0;points=[[0,0.5],[1,0.5]];portConstraint=eastwest;html=1;" parent="t9zF6-tFFcsAJkriFhJy-80" vertex="1">
                    <mxGeometry y="53" width="242.5" height="26" as="geometry"/>
                </mxCell>
                <mxCell id="t9zF6-tFFcsAJkriFhJy-84" value="" style="endArrow=block;dashed=1;endFill=0;endSize=12;html=1;rounded=1;edgeStyle=elbowEdgeStyle;elbow=vertical;" parent="1" source="bCNP0cULC8ASSDNxjgNn-11" target="t9zF6-tFFcsAJkriFhJy-80" edge="1">
                    <mxGeometry width="160" relative="1" as="geometry">
                        <mxPoint x="1880" y="1380" as="sourcePoint"/>
                        <mxPoint x="2285" y="1615" as="targetPoint"/>
                        <Array as="points">
                            <mxPoint x="1500" y="1380"/>
                            <mxPoint x="1695" y="1375"/>
                            <mxPoint x="1490" y="1550"/>
                            <mxPoint x="1895" y="2180"/>
                            <mxPoint x="2260" y="1576"/>
                            <mxPoint x="2005" y="2170"/>
                        </Array>
                    </mxGeometry>
                </mxCell>
                <mxCell id="t9zF6-tFFcsAJkriFhJy-95" value="" style="endArrow=diamondThin;endFill=1;endSize=24;html=1;rounded=1;edgeStyle=elbowEdgeStyle;" parent="1" source="kb_3mGIxlnbqVhcPvbaU-50" target="leu3_-LH81RKHLBO9N2G-37" edge="1">
                    <mxGeometry width="160" relative="1" as="geometry">
                        <mxPoint y="1270" as="sourcePoint"/>
                        <mxPoint x="160" y="1270" as="targetPoint"/>
                        <Array as="points">
                            <mxPoint x="260" y="1175"/>
                            <mxPoint x="275" y="1170"/>
                            <mxPoint x="120" y="1060"/>
                            <mxPoint x="85" y="1060"/>
                        </Array>
                    </mxGeometry>
                </mxCell>
                <mxCell id="t9zF6-tFFcsAJkriFhJy-97" value="&lt;span style=&quot;font-weight: normal&quot;&gt;&amp;lt;&amp;lt;interface&amp;gt;&amp;gt;&lt;/span&gt;&lt;br&gt;IGetUser" style="swimlane;fontStyle=1;align=center;verticalAlign=top;childLayout=stackLayout;horizontal=1;startSize=38;horizontalStack=0;resizeParent=1;resizeParentMax=0;resizeLast=0;collapsible=1;marginBottom=0;html=1;" parent="1" vertex="1">
                    <mxGeometry x="590" y="1021" width="135" height="73" as="geometry"/>
                </mxCell>
                <mxCell id="t9zF6-tFFcsAJkriFhJy-98" value="" style="line;strokeWidth=1;fillColor=none;align=left;verticalAlign=middle;spacingTop=-1;spacingLeft=3;spacingRight=3;rotatable=0;labelPosition=right;points=[];portConstraint=eastwest;" parent="t9zF6-tFFcsAJkriFhJy-97" vertex="1">
                    <mxGeometry y="38" width="135" height="10" as="geometry"/>
                </mxCell>
                <mxCell id="t9zF6-tFFcsAJkriFhJy-99" value="+ GetUser(id: int): User" style="text;strokeColor=none;fillColor=none;align=left;verticalAlign=top;spacingLeft=4;spacingRight=4;overflow=hidden;rotatable=0;points=[[0,0.5],[1,0.5]];portConstraint=eastwest;" parent="t9zF6-tFFcsAJkriFhJy-97" vertex="1">
                    <mxGeometry y="48" width="135" height="25" as="geometry"/>
                </mxCell>
                <mxCell id="t9zF6-tFFcsAJkriFhJy-101" value="Gateway&lt;br&gt;&lt;span style=&quot;text-align: left&quot;&gt;NOTE: Работа с БД через libpqxx&lt;/span&gt;" style="html=1;fontSize=24;" parent="1" vertex="1">
                    <mxGeometry x="660" y="1405" width="730" height="90" as="geometry"/>
                </mxCell>
                <mxCell id="t9zF6-tFFcsAJkriFhJy-126" value="UserAuthUC" style="swimlane;fontStyle=1;align=center;verticalAlign=top;childLayout=stackLayout;horizontal=1;startSize=25;horizontalStack=0;resizeParent=1;resizeParentMax=0;resizeLast=0;collapsible=1;marginBottom=0;html=1;" parent="1" vertex="1">
                    <mxGeometry x="540.88" y="774" width="242" height="187" as="geometry"/>
                </mxCell>
                <mxCell id="t9zF6-tFFcsAJkriFhJy-127" value="- user_id_: int" style="text;strokeColor=none;fillColor=none;align=left;verticalAlign=top;spacingLeft=4;spacingRight=4;overflow=hidden;rotatable=0;points=[[0,0.5],[1,0.5]];portConstraint=eastwest;" parent="t9zF6-tFFcsAJkriFhJy-126" vertex="1">
                    <mxGeometry y="25" width="242" height="25" as="geometry"/>
                </mxCell>
                <mxCell id="t9zF6-tFFcsAJkriFhJy-145" value="- getter_user_: shared_ptr&lt;IGetUser&gt;" style="text;strokeColor=none;fillColor=none;align=left;verticalAlign=top;spacingLeft=4;spacingRight=4;overflow=hidden;rotatable=0;points=[[0,0.5],[1,0.5]];portConstraint=eastwest;fontStyle=0" parent="t9zF6-tFFcsAJkriFhJy-126" vertex="1">
                    <mxGeometry y="50" width="242" height="25" as="geometry"/>
                </mxCell>
                <mxCell id="t9zF6-tFFcsAJkriFhJy-167" value="- creater_user_: shared_ptr&lt;ICreaterUser&gt;" style="text;strokeColor=none;fillColor=none;align=left;verticalAlign=top;spacingLeft=4;spacingRight=4;overflow=hidden;rotatable=0;points=[[0,0.5],[1,0.5]];portConstraint=eastwest;fontStyle=0" parent="t9zF6-tFFcsAJkriFhJy-126" vertex="1">
                    <mxGeometry y="75" width="242" height="25" as="geometry"/>
                </mxCell>
                <mxCell id="t9zF6-tFFcsAJkriFhJy-128" value="" style="line;strokeWidth=1;fillColor=none;align=left;verticalAlign=middle;spacingTop=-1;spacingLeft=3;spacingRight=3;rotatable=0;labelPosition=right;points=[];portConstraint=eastwest;" parent="t9zF6-tFFcsAJkriFhJy-126" vertex="1">
                    <mxGeometry y="100" width="242" height="10" as="geometry"/>
                </mxCell>
                <mxCell id="t9zF6-tFFcsAJkriFhJy-130" value="+ UserAuthUC(&#10;getter: shared_ptr&lt;IGetUser&gt;, &#10;creater: shared_ptr&lt;ICreateUser&gt;) " style="text;strokeColor=none;fillColor=none;align=left;verticalAlign=top;spacingLeft=4;spacingRight=4;overflow=hidden;rotatable=0;points=[[0,0.5],[1,0.5]];portConstraint=eastwest;fontStyle=0" parent="t9zF6-tFFcsAJkriFhJy-126" vertex="1">
                    <mxGeometry y="110" width="242" height="52" as="geometry"/>
                </mxCell>
                <mxCell id="t9zF6-tFFcsAJkriFhJy-151" value="+ Execute(user_id: int): vector&lt;int&gt;" style="text;strokeColor=none;fillColor=none;align=left;verticalAlign=top;spacingLeft=4;spacingRight=4;overflow=hidden;rotatable=0;points=[[0,0.5],[1,0.5]];portConstraint=eastwest;" parent="t9zF6-tFFcsAJkriFhJy-126" vertex="1">
                    <mxGeometry y="162" width="242" height="25" as="geometry"/>
                </mxCell>
                <mxCell id="t9zF6-tFFcsAJkriFhJy-131" value="UserAuthHandler" style="swimlane;fontStyle=1;align=center;verticalAlign=top;childLayout=stackLayout;horizontal=1;startSize=25;horizontalStack=0;resizeParent=1;resizeParentMax=0;resizeLast=0;collapsible=1;marginBottom=0;html=1;" parent="1" vertex="1">
                    <mxGeometry x="543.29" y="521" width="237.19" height="117" as="geometry"/>
                </mxCell>
                <mxCell id="t9zF6-tFFcsAJkriFhJy-132" value="- user_auth_:  UserAuthUC" style="text;strokeColor=none;fillColor=none;align=left;verticalAlign=top;spacingLeft=4;spacingRight=4;overflow=hidden;rotatable=0;points=[[0,0.5],[1,0.5]];portConstraint=eastwest;fontStyle=0" parent="t9zF6-tFFcsAJkriFhJy-131" vertex="1">
                    <mxGeometry y="25" width="237.19" height="25" as="geometry"/>
                </mxCell>
                <mxCell id="t9zF6-tFFcsAJkriFhJy-133" value="" style="line;strokeWidth=1;fillColor=none;align=left;verticalAlign=middle;spacingTop=-1;spacingLeft=3;spacingRight=3;rotatable=0;labelPosition=right;points=[];portConstraint=eastwest;" parent="t9zF6-tFFcsAJkriFhJy-131" vertex="1">
                    <mxGeometry y="50" width="237.19" height="10" as="geometry"/>
                </mxCell>
                <mxCell id="5" value="+ UserAuthHandler(&#10;getter_user: shared_ptr&lt;IGetUser&gt;, &#10;creater_user: shared_ptr&lt;ICreateUser&gt;)" style="text;strokeColor=none;fillColor=none;align=left;verticalAlign=top;spacingLeft=4;spacingRight=4;overflow=hidden;rotatable=0;points=[[0,0.5],[1,0.5]];portConstraint=eastwest;fontStyle=0" parent="t9zF6-tFFcsAJkriFhJy-131" vertex="1">
                    <mxGeometry y="60" width="237.19" height="57" as="geometry"/>
                </mxCell>
                <mxCell id="t9zF6-tFFcsAJkriFhJy-146" value="&lt;span style=&quot;font-weight: normal&quot;&gt;&amp;lt;&amp;lt;interface&amp;gt;&amp;gt;&lt;/span&gt;&lt;br&gt;ICreateUser" style="swimlane;fontStyle=1;align=center;verticalAlign=top;childLayout=stackLayout;horizontal=1;startSize=38;horizontalStack=0;resizeParent=1;resizeParentMax=0;resizeLast=0;collapsible=1;marginBottom=0;html=1;" parent="1" vertex="1">
                    <mxGeometry x="587.5" y="1165" width="140" height="73" as="geometry"/>
                </mxCell>
                <mxCell id="t9zF6-tFFcsAJkriFhJy-147" value="" style="line;strokeWidth=1;fillColor=none;align=left;verticalAlign=middle;spacingTop=-1;spacingLeft=3;spacingRight=3;rotatable=0;labelPosition=right;points=[];portConstraint=eastwest;" parent="t9zF6-tFFcsAJkriFhJy-146" vertex="1">
                    <mxGeometry y="38" width="140" height="10" as="geometry"/>
                </mxCell>
                <mxCell id="t9zF6-tFFcsAJkriFhJy-148" value="+ CreateUser(): User" style="text;strokeColor=none;fillColor=none;align=left;verticalAlign=top;spacingLeft=4;spacingRight=4;overflow=hidden;rotatable=0;points=[[0,0.5],[1,0.5]];portConstraint=eastwest;" parent="t9zF6-tFFcsAJkriFhJy-146" vertex="1">
                    <mxGeometry y="48" width="140" height="25" as="geometry"/>
                </mxCell>
                <mxCell id="t9zF6-tFFcsAJkriFhJy-156" value="" style="endArrow=diamondThin;endFill=1;endSize=24;html=1;rounded=1;" parent="1" source="t9zF6-tFFcsAJkriFhJy-126" target="t9zF6-tFFcsAJkriFhJy-131" edge="1">
                    <mxGeometry width="160" relative="1" as="geometry">
                        <mxPoint x="555" y="900" as="sourcePoint"/>
                        <mxPoint x="715" y="900" as="targetPoint"/>
                    </mxGeometry>
                </mxCell>
                <mxCell id="t9zF6-tFFcsAJkriFhJy-158" value="" style="endArrow=block;dashed=1;endFill=0;endSize=12;html=1;rounded=1;edgeStyle=orthogonalEdgeStyle;" parent="1" source="t9zF6-tFFcsAJkriFhJy-131" target="l3VD5_HxADrF9s5NhGB4-1" edge="1">
                    <mxGeometry width="160" relative="1" as="geometry">
                        <mxPoint x="940" y="530" as="sourcePoint"/>
                        <mxPoint x="1100" y="530" as="targetPoint"/>
                        <Array as="points">
                            <mxPoint x="662" y="444"/>
                        </Array>
                    </mxGeometry>
                </mxCell>
                <mxCell id="t9zF6-tFFcsAJkriFhJy-159" value="" style="endArrow=diamondThin;endFill=0;endSize=24;html=1;rounded=1;edgeStyle=orthogonalEdgeStyle;" parent="1" source="t9zF6-tFFcsAJkriFhJy-97" target="t9zF6-tFFcsAJkriFhJy-126" edge="1">
                    <mxGeometry width="160" relative="1" as="geometry">
                        <mxPoint x="382.5" y="1100" as="sourcePoint"/>
                        <mxPoint x="542.5" y="1100" as="targetPoint"/>
                        <Array as="points">
                            <mxPoint x="820" y="1040"/>
                            <mxPoint x="820" y="861"/>
                        </Array>
                    </mxGeometry>
                </mxCell>
                <mxCell id="t9zF6-tFFcsAJkriFhJy-160" value="" style="endArrow=diamondThin;endFill=0;endSize=24;html=1;rounded=1;edgeStyle=orthogonalEdgeStyle;" parent="1" source="t9zF6-tFFcsAJkriFhJy-146" target="t9zF6-tFFcsAJkriFhJy-126" edge="1">
                    <mxGeometry width="160" relative="1" as="geometry">
                        <mxPoint x="797.5" y="1068.5000000000005" as="sourcePoint"/>
                        <mxPoint x="782.5000000000002" y="959.9999999999995" as="targetPoint"/>
                        <Array as="points">
                            <mxPoint x="840" y="1180"/>
                            <mxPoint x="840" y="820"/>
                        </Array>
                    </mxGeometry>
                </mxCell>
                <mxCell id="t9zF6-tFFcsAJkriFhJy-162" value="" style="endArrow=open;dashed=1;endFill=0;endSize=12;html=1;rounded=1;edgeStyle=orthogonalEdgeStyle;" parent="1" source="t9zF6-tFFcsAJkriFhJy-97" target="HgwSdka9-RbxPRJBKt4S-45" edge="1">
                    <mxGeometry width="160" relative="1" as="geometry">
                        <mxPoint x="360" y="945" as="sourcePoint"/>
                        <mxPoint x="440" y="450" as="targetPoint"/>
                        <Array as="points">
                            <mxPoint x="520" y="1040"/>
                            <mxPoint x="520" y="420"/>
                        </Array>
                    </mxGeometry>
                </mxCell>
                <mxCell id="t9zF6-tFFcsAJkriFhJy-163" value="" style="endArrow=open;dashed=1;endFill=0;endSize=12;html=1;rounded=1;edgeStyle=orthogonalEdgeStyle;shadow=0;sketch=0;" parent="1" source="t9zF6-tFFcsAJkriFhJy-146" target="HgwSdka9-RbxPRJBKt4S-45" edge="1">
                    <mxGeometry width="160" relative="1" as="geometry">
                        <mxPoint x="590" y="1021.5" as="sourcePoint"/>
                        <mxPoint x="344" y="455" as="targetPoint"/>
                        <Array as="points">
                            <mxPoint x="500" y="1180"/>
                            <mxPoint x="500" y="460"/>
                        </Array>
                    </mxGeometry>
                </mxCell>
                <mxCell id="t9zF6-tFFcsAJkriFhJy-165" value="" style="endArrow=block;dashed=1;endFill=0;endSize=12;html=1;rounded=1;shadow=0;sketch=0;edgeStyle=orthogonalEdgeStyle;" parent="1" source="t9zF6-tFFcsAJkriFhJy-101" target="t9zF6-tFFcsAJkriFhJy-146" edge="1">
                    <mxGeometry width="160" relative="1" as="geometry">
                        <mxPoint x="1050" y="1205" as="sourcePoint"/>
                        <mxPoint x="890" y="1205" as="targetPoint"/>
                        <Array as="points">
                            <mxPoint x="683" y="1315"/>
                            <mxPoint x="683" y="1315"/>
                        </Array>
                    </mxGeometry>
                </mxCell>
                <mxCell id="t9zF6-tFFcsAJkriFhJy-166" value="" style="endArrow=block;dashed=1;endFill=0;endSize=12;html=1;rounded=1;shadow=0;sketch=0;edgeStyle=orthogonalEdgeStyle;" parent="1" source="t9zF6-tFFcsAJkriFhJy-101" target="t9zF6-tFFcsAJkriFhJy-97" edge="1">
                    <mxGeometry width="160" relative="1" as="geometry">
                        <mxPoint x="1030" y="1280" as="sourcePoint"/>
                        <mxPoint x="667.4666666666665" y="1158" as="targetPoint"/>
                        <Array as="points">
                            <mxPoint x="780" y="1080"/>
                        </Array>
                    </mxGeometry>
                </mxCell>
                <mxCell id="t9zF6-tFFcsAJkriFhJy-172" value="&lt;span style=&quot;font-weight: normal&quot;&gt;&amp;lt;&amp;lt;interface&amp;gt;&amp;gt;&lt;/span&gt;&lt;br&gt;ICreateChat" style="swimlane;fontStyle=1;align=center;verticalAlign=top;childLayout=stackLayout;horizontal=1;startSize=38;horizontalStack=0;resizeParent=1;resizeParentMax=0;resizeLast=0;collapsible=1;marginBottom=0;html=1;" parent="1" vertex="1">
                    <mxGeometry x="1000" y="1021" width="140" height="73" as="geometry"/>
                </mxCell>
                <mxCell id="t9zF6-tFFcsAJkriFhJy-173" value="" style="line;strokeWidth=1;fillColor=none;align=left;verticalAlign=middle;spacingTop=-1;spacingLeft=3;spacingRight=3;rotatable=0;labelPosition=right;points=[];portConstraint=eastwest;" parent="t9zF6-tFFcsAJkriFhJy-172" vertex="1">
                    <mxGeometry y="38" width="140" height="10" as="geometry"/>
                </mxCell>
                <mxCell id="t9zF6-tFFcsAJkriFhJy-174" value="+ CreateChat(): int" style="text;strokeColor=none;fillColor=none;align=left;verticalAlign=top;spacingLeft=4;spacingRight=4;overflow=hidden;rotatable=0;points=[[0,0.5],[1,0.5]];portConstraint=eastwest;" parent="t9zF6-tFFcsAJkriFhJy-172" vertex="1">
                    <mxGeometry y="48" width="140" height="25" as="geometry"/>
                </mxCell>
                <mxCell id="t9zF6-tFFcsAJkriFhJy-178" value="" style="endArrow=open;dashed=1;endFill=0;endSize=12;html=1;rounded=1;edgeStyle=orthogonalEdgeStyle;shadow=0;sketch=0;" parent="1" source="t9zF6-tFFcsAJkriFhJy-172" target="Bm1LBRGZsNO9c_nWnn3g-1" edge="1">
                    <mxGeometry width="160" relative="1" as="geometry">
                        <mxPoint x="605" y="1105.04347826087" as="sourcePoint"/>
                        <mxPoint x="344" y="425.0434782608695" as="targetPoint"/>
                        <Array as="points">
                            <mxPoint x="900" y="1080"/>
                            <mxPoint x="900" y="1260"/>
                            <mxPoint x="460" y="1260"/>
                            <mxPoint x="460" y="600"/>
                        </Array>
                    </mxGeometry>
                </mxCell>
                <mxCell id="t9zF6-tFFcsAJkriFhJy-180" value="" style="endArrow=diamondThin;endFill=0;endSize=24;html=1;rounded=1;edgeStyle=orthogonalEdgeStyle;" parent="1" source="t9zF6-tFFcsAJkriFhJy-172" target="dmPfmuvCO5BIkzRvhQW3-37" edge="1">
                    <mxGeometry width="160" relative="1" as="geometry">
                        <mxPoint x="825" y="1089" as="sourcePoint"/>
                        <mxPoint x="882.5" y="820" as="targetPoint"/>
                        <Array as="points">
                            <mxPoint x="900" y="1040"/>
                            <mxPoint x="900" y="900"/>
                        </Array>
                    </mxGeometry>
                </mxCell>
                <mxCell id="t9zF6-tFFcsAJkriFhJy-181" value="" style="endArrow=block;dashed=1;endFill=0;endSize=12;html=1;rounded=1;shadow=0;sketch=0;edgeStyle=orthogonalEdgeStyle;" parent="1" source="t9zF6-tFFcsAJkriFhJy-101" target="t9zF6-tFFcsAJkriFhJy-172" edge="1">
                    <mxGeometry width="160" relative="1" as="geometry">
                        <mxPoint x="987.0834782608699" y="1306" as="sourcePoint"/>
                        <mxPoint x="970.0400000000004" y="1184" as="targetPoint"/>
                        <Array as="points">
                            <mxPoint x="1220" y="1045"/>
                        </Array>
                    </mxGeometry>
                </mxCell>
                <mxCell id="t9zF6-tFFcsAJkriFhJy-182" value="" style="endArrow=block;dashed=1;endFill=0;endSize=12;html=1;rounded=1;shadow=0;sketch=0;edgeStyle=orthogonalEdgeStyle;" parent="1" source="t9zF6-tFFcsAJkriFhJy-101" target="bCNP0cULC8ASSDNxjgNn-5" edge="1">
                    <mxGeometry width="160" relative="1" as="geometry">
                        <mxPoint x="1250" y="1265" as="sourcePoint"/>
                        <mxPoint x="1160" y="1060" as="targetPoint"/>
                        <Array as="points">
                            <mxPoint x="1200" y="1140"/>
                        </Array>
                    </mxGeometry>
                </mxCell>
                <mxCell id="t9zF6-tFFcsAJkriFhJy-183" value="" style="endArrow=diamondThin;endFill=1;endSize=24;html=1;rounded=1;" parent="1" source="dmPfmuvCO5BIkzRvhQW3-37" target="kb_3mGIxlnbqVhcPvbaU-41" edge="1">
                    <mxGeometry width="160" relative="1" as="geometry">
                        <mxPoint x="1080" y="780" as="sourcePoint"/>
                        <mxPoint x="1080" y="707" as="targetPoint"/>
                    </mxGeometry>
                </mxCell>
                <mxCell id="t9zF6-tFFcsAJkriFhJy-184" value="" style="endArrow=block;dashed=1;endFill=0;endSize=12;html=1;rounded=1;edgeStyle=orthogonalEdgeStyle;" parent="1" source="kb_3mGIxlnbqVhcPvbaU-41" target="l3VD5_HxADrF9s5NhGB4-1" edge="1">
                    <mxGeometry width="160" relative="1" as="geometry">
                        <mxPoint x="667.4782608695655" y="645" as="sourcePoint"/>
                        <mxPoint x="1465" y="415.0434782608695" as="targetPoint"/>
                        <Array as="points">
                            <mxPoint x="1070" y="473"/>
                        </Array>
                    </mxGeometry>
                </mxCell>
                <mxCell id="t9zF6-tFFcsAJkriFhJy-187" value="" style="endArrow=diamondThin;endFill=1;endSize=24;html=1;rounded=1;" parent="1" source="qE9S9bq8S4wY-z4ullLe-17" target="kb_3mGIxlnbqVhcPvbaU-2" edge="1">
                    <mxGeometry width="160" relative="1" as="geometry">
                        <mxPoint x="1385" y="810" as="sourcePoint"/>
                        <mxPoint x="1385" y="730" as="targetPoint"/>
                    </mxGeometry>
                </mxCell>
                <mxCell id="t9zF6-tFFcsAJkriFhJy-188" value="" style="endArrow=block;dashed=1;endFill=0;endSize=12;html=1;rounded=1;edgeStyle=orthogonalEdgeStyle;" parent="1" source="kb_3mGIxlnbqVhcPvbaU-2" target="l3VD5_HxADrF9s5NhGB4-1" edge="1">
                    <mxGeometry width="160" relative="1" as="geometry">
                        <mxPoint x="1075" y="645" as="sourcePoint"/>
                        <mxPoint x="1465" y="425" as="targetPoint"/>
                        <Array as="points">
                            <mxPoint x="1490" y="528"/>
                            <mxPoint x="1804" y="528"/>
                        </Array>
                    </mxGeometry>
                </mxCell>
                <mxCell id="t9zF6-tFFcsAJkriFhJy-195" value="&lt;span style=&quot;font-weight: normal&quot;&gt;&amp;lt;&amp;lt;interface&amp;gt;&amp;gt;&lt;/span&gt;&lt;br&gt;ISendMsg" style="swimlane;fontStyle=1;align=center;verticalAlign=top;childLayout=stackLayout;horizontal=1;startSize=38;horizontalStack=0;resizeParent=1;resizeParentMax=0;resizeLast=0;collapsible=1;marginBottom=0;html=1;" parent="1" vertex="1">
                    <mxGeometry x="1390" y="1100" width="200" height="90" as="geometry"/>
                </mxCell>
                <mxCell id="t9zF6-tFFcsAJkriFhJy-196" value="" style="line;strokeWidth=1;fillColor=none;align=left;verticalAlign=middle;spacingTop=-1;spacingLeft=3;spacingRight=3;rotatable=0;labelPosition=right;points=[];portConstraint=eastwest;" parent="t9zF6-tFFcsAJkriFhJy-195" vertex="1">
                    <mxGeometry y="38" width="200" height="10" as="geometry"/>
                </mxCell>
                <mxCell id="t9zF6-tFFcsAJkriFhJy-197" value="+ SendMsg(msg: Message const&amp;, &#10;chat_id: int)" style="text;strokeColor=none;fillColor=none;align=left;verticalAlign=top;spacingLeft=4;spacingRight=4;overflow=hidden;rotatable=0;points=[[0,0.5],[1,0.5]];portConstraint=eastwest;" parent="t9zF6-tFFcsAJkriFhJy-195" vertex="1">
                    <mxGeometry y="48" width="200" height="42" as="geometry"/>
                </mxCell>
                <mxCell id="t9zF6-tFFcsAJkriFhJy-199" value="" style="endArrow=diamondThin;endFill=0;endSize=24;html=1;rounded=1;edgeStyle=orthogonalEdgeStyle;" parent="1" source="2" target="qE9S9bq8S4wY-z4ullLe-17" edge="1">
                    <mxGeometry width="160" relative="1" as="geometry">
                        <mxPoint x="954" y="1078" as="sourcePoint"/>
                        <mxPoint x="1275" y="940" as="targetPoint"/>
                        <Array as="points">
                            <mxPoint x="1237" y="1259"/>
                            <mxPoint x="1237" y="820"/>
                        </Array>
                    </mxGeometry>
                </mxCell>
                <mxCell id="t9zF6-tFFcsAJkriFhJy-202" value="" style="endArrow=diamondThin;endFill=0;endSize=24;html=1;rounded=1;edgeStyle=orthogonalEdgeStyle;" parent="1" source="t9zF6-tFFcsAJkriFhJy-195" target="qE9S9bq8S4wY-z4ullLe-17" edge="1">
                    <mxGeometry width="160" relative="1" as="geometry">
                        <mxPoint x="1344.97" y="1165" as="sourcePoint"/>
                        <mxPoint x="1324.97" y="965" as="targetPoint"/>
                        <Array as="points">
                            <mxPoint x="1280" y="1140"/>
                            <mxPoint x="1280" y="900"/>
                        </Array>
                    </mxGeometry>
                </mxCell>
                <mxCell id="t9zF6-tFFcsAJkriFhJy-203" value="" style="endArrow=block;dashed=1;endFill=0;endSize=12;html=1;rounded=1;shadow=0;sketch=0;edgeStyle=orthogonalEdgeStyle;" parent="1" source="t9zF6-tFFcsAJkriFhJy-101" target="t9zF6-tFFcsAJkriFhJy-195" edge="1">
                    <mxGeometry width="160" relative="1" as="geometry">
                        <mxPoint x="1365" y="1495" as="sourcePoint"/>
                        <mxPoint x="1345" y="1165" as="targetPoint"/>
                        <Array as="points">
                            <mxPoint x="1360" y="1180"/>
                        </Array>
                    </mxGeometry>
                </mxCell>
                <mxCell id="t9zF6-tFFcsAJkriFhJy-204" value="" style="endArrow=open;dashed=1;endFill=0;endSize=12;html=1;rounded=1;edgeStyle=orthogonalEdgeStyle;shadow=0;sketch=0;" parent="1" source="t9zF6-tFFcsAJkriFhJy-195" target="Bm1LBRGZsNO9c_nWnn3g-6" edge="1">
                    <mxGeometry width="160" relative="1" as="geometry">
                        <mxPoint x="1241" y="1125" as="sourcePoint"/>
                        <mxPoint x="305" y="665" as="targetPoint"/>
                        <Array as="points">
                            <mxPoint x="1340" y="1160"/>
                            <mxPoint x="1340" y="1360"/>
                            <mxPoint x="400" y="1360"/>
                            <mxPoint x="400" y="780"/>
                        </Array>
                    </mxGeometry>
                </mxCell>
                <mxCell id="t9zF6-tFFcsAJkriFhJy-205" value="" style="endArrow=diamondThin;endFill=1;endSize=24;html=1;rounded=1;edgeStyle=orthogonalEdgeStyle;" parent="1" source="leu3_-LH81RKHLBO9N2G-37" target="qE9S9bq8S4wY-z4ullLe-17" edge="1">
                    <mxGeometry width="160" relative="1" as="geometry">
                        <mxPoint x="430" y="1379" as="sourcePoint"/>
                        <mxPoint x="1260" y="1281.3793103448277" as="targetPoint"/>
                        <Array as="points">
                            <mxPoint x="360" y="1040"/>
                            <mxPoint x="360" y="1380"/>
                            <mxPoint x="1260" y="1380"/>
                            <mxPoint x="1260" y="860"/>
                        </Array>
                    </mxGeometry>
                </mxCell>
                <mxCell id="t9zF6-tFFcsAJkriFhJy-208" value="" style="endArrow=diamondThin;endFill=0;endSize=24;html=1;rounded=1;edgeStyle=orthogonalEdgeStyle;" parent="1" source="t9zF6-tFFcsAJkriFhJy-80" target="qE9S9bq8S4wY-z4ullLe-17" edge="1">
                    <mxGeometry width="160" relative="1" as="geometry">
                        <mxPoint x="1460" y="2087.8571428571427" as="sourcePoint"/>
                        <mxPoint x="1395" y="825" as="targetPoint"/>
                        <Array as="points">
                            <mxPoint x="1690" y="1260"/>
                            <mxPoint x="1690" y="820"/>
                        </Array>
                    </mxGeometry>
                </mxCell>
                <mxCell id="t9zF6-tFFcsAJkriFhJy-209" value="" style="endArrow=diamondThin;endFill=1;endSize=24;html=1;rounded=1;" parent="1" source="qE9S9bq8S4wY-z4ullLe-12" target="kb_3mGIxlnbqVhcPvbaU-34" edge="1">
                    <mxGeometry width="160" relative="1" as="geometry">
                        <mxPoint x="1805" y="815" as="sourcePoint"/>
                        <mxPoint x="1805" y="735" as="targetPoint"/>
                    </mxGeometry>
                </mxCell>
                <mxCell id="t9zF6-tFFcsAJkriFhJy-210" value="" style="endArrow=block;dashed=1;endFill=0;endSize=12;html=1;rounded=1;edgeStyle=orthogonalEdgeStyle;" parent="1" source="kb_3mGIxlnbqVhcPvbaU-34" target="l3VD5_HxADrF9s5NhGB4-1" edge="1">
                    <mxGeometry width="160" relative="1" as="geometry">
                        <mxPoint x="1910" y="580" as="sourcePoint"/>
                        <mxPoint x="1465" y="465" as="targetPoint"/>
                        <Array as="points">
                            <mxPoint x="1893" y="500"/>
                            <mxPoint x="1893" y="500"/>
                        </Array>
                    </mxGeometry>
                </mxCell>
                <mxCell id="t9zF6-tFFcsAJkriFhJy-212" value="" style="endArrow=diamondThin;endFill=0;endSize=24;html=1;rounded=1;edgeStyle=orthogonalEdgeStyle;" parent="1" source="2" target="qE9S9bq8S4wY-z4ullLe-12" edge="1">
                    <mxGeometry width="160" relative="1" as="geometry">
                        <mxPoint x="670.0344827586205" y="1026" as="sourcePoint"/>
                        <mxPoint x="1865" y="1015" as="targetPoint"/>
                        <Array as="points">
                            <mxPoint x="1328" y="1292"/>
                            <mxPoint x="1328" y="1060"/>
                            <mxPoint x="1700" y="1060"/>
                            <mxPoint x="1700" y="847"/>
                        </Array>
                    </mxGeometry>
                </mxCell>
                <mxCell id="t9zF6-tFFcsAJkriFhJy-215" value="&lt;span style=&quot;font-weight: normal&quot;&gt;&amp;lt;&amp;lt;interface&amp;gt;&amp;gt;&lt;/span&gt;&lt;br&gt;IGetMsgs" style="swimlane;fontStyle=1;align=center;verticalAlign=top;childLayout=stackLayout;horizontal=1;startSize=38;horizontalStack=0;resizeParent=1;resizeParentMax=0;resizeLast=0;collapsible=1;marginBottom=0;html=1;" parent="1" vertex="1">
                    <mxGeometry x="1802.5" y="1061" width="215" height="90" as="geometry"/>
                </mxCell>
                <mxCell id="t9zF6-tFFcsAJkriFhJy-216" value="" style="line;strokeWidth=1;fillColor=none;align=left;verticalAlign=middle;spacingTop=-1;spacingLeft=3;spacingRight=3;rotatable=0;labelPosition=right;points=[];portConstraint=eastwest;" parent="t9zF6-tFFcsAJkriFhJy-215" vertex="1">
                    <mxGeometry y="38" width="215" height="10" as="geometry"/>
                </mxCell>
                <mxCell id="t9zF6-tFFcsAJkriFhJy-217" value="+ GetMsgs(chat_id: int, &#10;from_time: time): vector&lt;Message&gt;" style="text;strokeColor=none;fillColor=none;align=left;verticalAlign=top;spacingLeft=4;spacingRight=4;overflow=hidden;rotatable=0;points=[[0,0.5],[1,0.5]];portConstraint=eastwest;" parent="t9zF6-tFFcsAJkriFhJy-215" vertex="1">
                    <mxGeometry y="48" width="215" height="42" as="geometry"/>
                </mxCell>
                <mxCell id="t9zF6-tFFcsAJkriFhJy-218" value="" style="endArrow=diamondThin;endFill=0;endSize=24;html=1;rounded=1;edgeStyle=orthogonalEdgeStyle;" parent="1" source="t9zF6-tFFcsAJkriFhJy-215" target="qE9S9bq8S4wY-z4ullLe-12" edge="1">
                    <mxGeometry width="160" relative="1" as="geometry">
                        <mxPoint x="1415" y="1144.9999999999998" as="sourcePoint"/>
                        <mxPoint x="1395" y="905" as="targetPoint"/>
                        <Array as="points">
                            <mxPoint x="1860" y="1040"/>
                            <mxPoint x="1720" y="1040"/>
                            <mxPoint x="1720" y="905"/>
                        </Array>
                    </mxGeometry>
                </mxCell>
                <mxCell id="t9zF6-tFFcsAJkriFhJy-219" value="" style="endArrow=block;dashed=1;endFill=0;endSize=12;html=1;rounded=1;shadow=0;sketch=0;edgeStyle=orthogonalEdgeStyle;" parent="1" source="t9zF6-tFFcsAJkriFhJy-101" target="t9zF6-tFFcsAJkriFhJy-215" edge="1">
                    <mxGeometry width="160" relative="1" as="geometry">
                        <mxPoint x="1720" y="1440" as="sourcePoint"/>
                        <mxPoint x="1770" y="1230" as="targetPoint"/>
                        <Array as="points">
                            <mxPoint x="1720" y="1440"/>
                            <mxPoint x="1720" y="1120"/>
                        </Array>
                    </mxGeometry>
                </mxCell>
                <mxCell id="t9zF6-tFFcsAJkriFhJy-220" value="" style="endArrow=open;dashed=1;endFill=0;endSize=12;html=1;rounded=1;edgeStyle=orthogonalEdgeStyle;shadow=0;sketch=0;" parent="1" source="t9zF6-tFFcsAJkriFhJy-215" target="Bm1LBRGZsNO9c_nWnn3g-1" edge="1">
                    <mxGeometry width="160" relative="1" as="geometry">
                        <mxPoint x="1531" y="1234.9999999999998" as="sourcePoint"/>
                        <mxPoint x="440" y="855" as="targetPoint"/>
                        <Array as="points">
                            <mxPoint x="1305" y="1080"/>
                            <mxPoint x="1305" y="1340"/>
                            <mxPoint x="440" y="1340"/>
                            <mxPoint x="440" y="640"/>
                        </Array>
                    </mxGeometry>
                </mxCell>
                <mxCell id="t9zF6-tFFcsAJkriFhJy-221" value="&lt;font style=&quot;font-size: 24px&quot;&gt;Use Case&lt;/font&gt;" style="html=1;shadow=0;dashed=0;align=center;verticalAlign=middle;shape=mxgraph.arrows2.arrow;dy=0.6;dx=40;flipH=1;notch=0;" parent="1" vertex="1">
                    <mxGeometry x="2120" y="832.5" width="140" height="100" as="geometry"/>
                </mxCell>
                <mxCell id="t9zF6-tFFcsAJkriFhJy-223" value="&lt;div style=&quot;text-align: left&quot;&gt;&lt;br&gt;&lt;/div&gt;" style="text;html=1;align=center;verticalAlign=middle;resizable=0;points=[];autosize=1;strokeColor=none;fillColor=none;fontSize=24;" parent="1" vertex="1">
                    <mxGeometry x="1020" y="1511" width="10" height="33" as="geometry"/>
                </mxCell>
                <mxCell id="t9zF6-tFFcsAJkriFhJy-225" value="Entity" style="html=1;shadow=0;dashed=0;align=center;verticalAlign=middle;shape=mxgraph.arrows2.arrow;dy=0.6;dx=40;direction=south;notch=0;fontSize=24;" parent="1" vertex="1">
                    <mxGeometry x="160" y="260" width="200" height="100" as="geometry"/>
                </mxCell>
                <mxCell id="bCNP0cULC8ASSDNxjgNn-2" value="" style="endArrow=diamondThin;endFill=0;endSize=24;html=1;rounded=1;edgeStyle=orthogonalEdgeStyle;" parent="1" source="2" target="dmPfmuvCO5BIkzRvhQW3-37" edge="1">
                    <mxGeometry width="160" relative="1" as="geometry">
                        <mxPoint x="670" y="1026" as="sourcePoint"/>
                        <mxPoint x="1345" y="825" as="targetPoint"/>
                        <Array as="points">
                            <mxPoint x="860" y="1257"/>
                            <mxPoint x="860" y="820"/>
                        </Array>
                    </mxGeometry>
                </mxCell>
                <mxCell id="bCNP0cULC8ASSDNxjgNn-5" value="&lt;span style=&quot;font-weight: normal&quot;&gt;&amp;lt;&amp;lt;interface&amp;gt;&amp;gt;&lt;/span&gt;&lt;br&gt;ISetChat" style="swimlane;fontStyle=1;align=center;verticalAlign=top;childLayout=stackLayout;horizontal=1;startSize=38;horizontalStack=0;resizeParent=1;resizeParentMax=0;resizeLast=0;collapsible=1;marginBottom=0;html=1;" parent="1" vertex="1">
                    <mxGeometry x="962.5" y="1121" width="215" height="90" as="geometry"/>
                </mxCell>
                <mxCell id="bCNP0cULC8ASSDNxjgNn-6" value="" style="line;strokeWidth=1;fillColor=none;align=left;verticalAlign=middle;spacingTop=-1;spacingLeft=3;spacingRight=3;rotatable=0;labelPosition=right;points=[];portConstraint=eastwest;" parent="bCNP0cULC8ASSDNxjgNn-5" vertex="1">
                    <mxGeometry y="38" width="215" height="10" as="geometry"/>
                </mxCell>
                <mxCell id="bCNP0cULC8ASSDNxjgNn-7" value="+ SetChat(users: vector&lt;int&gt; const&amp;, &#10;chat_id: int)" style="text;strokeColor=none;fillColor=none;align=left;verticalAlign=top;spacingLeft=4;spacingRight=4;overflow=hidden;rotatable=0;points=[[0,0.5],[1,0.5]];portConstraint=eastwest;fontStyle=0" parent="bCNP0cULC8ASSDNxjgNn-5" vertex="1">
                    <mxGeometry y="48" width="215" height="42" as="geometry"/>
                </mxCell>
                <mxCell id="bCNP0cULC8ASSDNxjgNn-8" value="" style="endArrow=open;dashed=1;endFill=0;endSize=12;html=1;rounded=1;edgeStyle=orthogonalEdgeStyle;shadow=0;sketch=0;" parent="1" source="bCNP0cULC8ASSDNxjgNn-5" target="HgwSdka9-RbxPRJBKt4S-45" edge="1">
                    <mxGeometry width="160" relative="1" as="geometry">
                        <mxPoint x="610" y="1299" as="sourcePoint"/>
                        <mxPoint x="349" y="619" as="targetPoint"/>
                        <Array as="points">
                            <mxPoint x="915" y="1166"/>
                            <mxPoint x="915" y="1299"/>
                            <mxPoint x="480" y="1299"/>
                            <mxPoint x="480" y="500"/>
                        </Array>
                    </mxGeometry>
                </mxCell>
                <mxCell id="bCNP0cULC8ASSDNxjgNn-9" value="" style="endArrow=diamondThin;endFill=0;endSize=24;html=1;rounded=1;edgeStyle=orthogonalEdgeStyle;" parent="1" source="bCNP0cULC8ASSDNxjgNn-5" target="dmPfmuvCO5BIkzRvhQW3-37" edge="1">
                    <mxGeometry width="160" relative="1" as="geometry">
                        <mxPoint x="980" y="1155" as="sourcePoint"/>
                        <mxPoint x="940" y="895" as="targetPoint"/>
                        <Array as="points">
                            <mxPoint x="880" y="1140"/>
                            <mxPoint x="880" y="855"/>
                        </Array>
                    </mxGeometry>
                </mxCell>
                <mxCell id="bCNP0cULC8ASSDNxjgNn-11" value="ML-модель" style="html=1;fontSize=24;" parent="1" vertex="1">
                    <mxGeometry x="1835" y="1355" width="160" height="50" as="geometry"/>
                </mxCell>
                <mxCell id="bCNP0cULC8ASSDNxjgNn-12" value="" style="endArrow=diamondThin;endFill=1;endSize=24;html=1;edgeStyle=elbowEdgeStyle;" parent="1" source="Bm1LBRGZsNO9c_nWnn3g-1" target="HgwSdka9-RbxPRJBKt4S-45" edge="1">
                    <mxGeometry width="160" relative="1" as="geometry">
                        <mxPoint x="140" y="589" as="sourcePoint"/>
                        <mxPoint x="140" y="519.9999999999998" as="targetPoint"/>
                        <Array as="points">
                            <mxPoint x="259" y="535"/>
                            <mxPoint x="140" y="529"/>
                            <mxPoint x="155" y="554"/>
                            <mxPoint x="20" y="584"/>
                            <mxPoint x="-50" y="559"/>
                            <mxPoint x="10" y="689"/>
                        </Array>
                    </mxGeometry>
                </mxCell>
                <mxCell id="2" value="&lt;span style=&quot;font-weight: normal&quot;&gt;&amp;lt;&amp;lt;interface&amp;gt;&amp;gt;&lt;/span&gt;&lt;br&gt;ICheckUser" style="swimlane;fontStyle=1;align=center;verticalAlign=top;childLayout=stackLayout;horizontal=1;startSize=38;horizontalStack=0;resizeParent=1;resizeParentMax=0;resizeLast=0;collapsible=1;marginBottom=0;html=1;" parent="1" vertex="1">
                    <mxGeometry x="1002.5" y="1238" width="135" height="73" as="geometry"/>
                </mxCell>
                <mxCell id="3" value="" style="line;strokeWidth=1;fillColor=none;align=left;verticalAlign=middle;spacingTop=-1;spacingLeft=3;spacingRight=3;rotatable=0;labelPosition=right;points=[];portConstraint=eastwest;" parent="2" vertex="1">
                    <mxGeometry y="38" width="135" height="10" as="geometry"/>
                </mxCell>
                <mxCell id="4" value="+ CheckUser(id: int)" style="text;strokeColor=none;fillColor=none;align=left;verticalAlign=top;spacingLeft=4;spacingRight=4;overflow=hidden;rotatable=0;points=[[0,0.5],[1,0.5]];portConstraint=eastwest;" parent="2" vertex="1">
                    <mxGeometry y="48" width="135" height="25" as="geometry"/>
                </mxCell>
                <mxCell id="10" value="Интерфейсы реализованные Gateway, не хранят состояния =&amp;gt; могут использоваться через shared ptr" style="shape=note;whiteSpace=wrap;html=1;backgroundOutline=1;darkOpacity=0.05;fontSize=24;" vertex="1" parent="1">
                    <mxGeometry x="230" y="1410" width="384" height="162" as="geometry"/>
                </mxCell>
                <mxCell id="11" value="Обработчиками владеет только контроллер, поэтому unique_ptr" style="shape=note;whiteSpace=wrap;html=1;backgroundOutline=1;darkOpacity=0.05;fontSize=24;" vertex="1" parent="1">
                    <mxGeometry x="2225" y="205" width="384" height="162" as="geometry"/>
                </mxCell>
                <mxCell id="14" value="" style="endArrow=block;dashed=1;endFill=0;endSize=12;html=1;rounded=1;edgeStyle=orthogonalEdgeStyle;" edge="1" parent="1" source="9OPvWz-Zwt0wguvvxYVE-59" target="kb_3mGIxlnbqVhcPvbaU-59">
                    <mxGeometry width="160" relative="1" as="geometry">
                        <mxPoint x="1915.0000000000005" y="587" as="sourcePoint"/>
                        <mxPoint x="1726" y="497" as="targetPoint"/>
                        <Array as="points">
                            <mxPoint x="3010" y="154"/>
                        </Array>
                    </mxGeometry>
                </mxCell>
                <mxCell id="15" value="&lt;span style=&quot;font-weight: normal&quot;&gt;&amp;lt;&amp;lt;enumeration&amp;gt;&amp;gt;&lt;/span&gt;&lt;br&gt;&lt;span style=&quot;text-align: left&quot;&gt;TypeOfUseCase&lt;/span&gt;" style="swimlane;fontStyle=1;align=center;verticalAlign=top;childLayout=stackLayout;horizontal=1;startSize=40;horizontalStack=0;resizeParent=1;resizeParentMax=0;resizeLast=0;collapsible=1;marginBottom=0;html=1;" vertex="1" parent="1">
                    <mxGeometry x="1947" y="-109" width="120" height="140" as="geometry"/>
                </mxCell>
                <mxCell id="16" value="USER_AUTH" style="text;strokeColor=none;fillColor=none;align=left;verticalAlign=top;spacingLeft=4;spacingRight=4;overflow=hidden;rotatable=0;points=[[0,0.5],[1,0.5]];portConstraint=eastwest;html=1;" vertex="1" parent="15">
                    <mxGeometry y="40" width="120" height="25" as="geometry"/>
                </mxCell>
                <mxCell id="17" value="ADD_CHAT" style="text;strokeColor=none;fillColor=none;align=left;verticalAlign=top;spacingLeft=4;spacingRight=4;overflow=hidden;rotatable=0;points=[[0,0.5],[1,0.5]];portConstraint=eastwest;html=1;" vertex="1" parent="15">
                    <mxGeometry y="65" width="120" height="25" as="geometry"/>
                </mxCell>
                <mxCell id="18" value="SEND_MSG" style="text;strokeColor=none;fillColor=none;align=left;verticalAlign=top;spacingLeft=4;spacingRight=4;overflow=hidden;rotatable=0;points=[[0,0.5],[1,0.5]];portConstraint=eastwest;html=1;" vertex="1" parent="15">
                    <mxGeometry y="90" width="120" height="25" as="geometry"/>
                </mxCell>
                <mxCell id="19" value="UPDATE_CHAT" style="text;strokeColor=none;fillColor=none;align=left;verticalAlign=top;spacingLeft=4;spacingRight=4;overflow=hidden;rotatable=0;points=[[0,0.5],[1,0.5]];portConstraint=eastwest;html=1;" vertex="1" parent="15">
                    <mxGeometry y="115" width="120" height="25" as="geometry"/>
                </mxCell>
                <mxCell id="27" value="" style="endArrow=open;dashed=1;endFill=0;endSize=12;html=1;rounded=1;" edge="1" parent="1" source="l3VD5_HxADrF9s5NhGB4-1" target="kb_3mGIxlnbqVhcPvbaU-59">
                    <mxGeometry width="160" relative="1" as="geometry">
                        <mxPoint x="2928" y="476.9969230769228" as="sourcePoint"/>
                        <mxPoint x="2677" y="-143.00307692307715" as="targetPoint"/>
                    </mxGeometry>
                </mxCell>
                <mxCell id="28" value="" style="endArrow=open;dashed=1;endFill=0;endSize=12;html=1;rounded=1;" edge="1" parent="1" source="l3VD5_HxADrF9s5NhGB4-1" target="kb_3mGIxlnbqVhcPvbaU-55">
                    <mxGeometry width="160" relative="1" as="geometry">
                        <mxPoint x="2012.0000000000005" y="405" as="sourcePoint"/>
                        <mxPoint x="2012.0000000000005" y="214.99999999999977" as="targetPoint"/>
                    </mxGeometry>
                </mxCell>
                <mxCell id="29" value="" style="endArrow=diamondThin;endFill=1;endSize=24;html=1;" edge="1" parent="1" source="kb_3mGIxlnbqVhcPvbaU-59" target="15">
                    <mxGeometry width="160" relative="1" as="geometry">
                        <mxPoint x="900" y="-95" as="sourcePoint"/>
                        <mxPoint x="900" y="-164" as="targetPoint"/>
                    </mxGeometry>
                </mxCell>
            </root>
        </mxGraphModel>
    </diagram>
</mxfile>